<svg width="512" height="512" viewBox="0 0 512 512" fill="none" xmlns="http://www.w3.org/2000/svg">
<path d="M136.265 195.333C133.233 198.663 128.957 200.675 124.433 200.189C119.909 200.953 115.537 199.149 112.333 195.333L84.8324 167.579C78.3892 161.681 78.3892 151.135 84.8324 144.634C91.275 138.132 101.725 138.132 108.167 144.634L123.368 159.947L161.262 117.511C167.312 110.677 177.763 110.122 184.569 116.276C191.306 122.431 191.856 132.956 185.738 139.798L136.265 195.333ZM136.265 306.347C133.233 309.677 128.957 311.69 124.433 311.204C119.909 311.967 115.537 310.163 112.333 306.347L84.8324 278.593C78.3892 272.696 78.3892 262.149 84.8324 255.627C91.275 249.175 101.725 249.175 108.167 255.627L123.368 270.961L161.262 228.498C167.312 221.698 177.763 221.143 184.569 227.319C191.306 233.424 191.856 243.971 185.738 250.84L136.265 306.347ZM228.5 173.06C219.356 173.06 212 165.636 212 156.408C212 147.215 219.356 139.756 228.5 139.756H415.5C424.644 139.756 432 147.215 432 156.408C432 165.636 424.644 173.06 415.5 173.06H228.5ZM212 267.423C212 258.195 219.356 250.77 228.5 250.77H415.5C424.644 250.77 432 258.195 432 267.423C432 276.651 424.644 284.075 415.5 284.075H228.5C219.356 284.075 212 276.651 212 267.423ZM190 378.437C190 369.209 197.356 361.785 206.5 361.785H415.5C424.644 361.785 432 369.209 432 378.437C432 387.665 424.644 395.089 415.5 395.089H206.5C197.356 395.089 190 387.665 190 378.437ZM124 400.64C111.852 400.64 102 390.718 102 378.437C102 366.156 111.852 356.234 124 356.234C136.148 356.234 146 366.156 146 378.437C146 390.718 136.148 400.64 124 400.64Z" fill="black"/></svg>